<svg xmlns="http://www.w3.org/2000/svg" width="560" height="320" viewBox="0 0 560 320" font-family="Segoe UI, Inter, system-ui, -apple-system, Helvetica, Arial, sans-serif">
<rect width="560" height="320" fill="#0b1720"/>
<defs><marker id="a" viewBox="0 0 10 10" refX="8" refY="5" markerWidth="7" markerHeight="7" orient="auto"><path d="M0,0 L10,5 L0,10 z" fill="#f5a44a"/></marker></defs>
<text x="24.0" y="34.0" font-size="17" fill="#fff" text-anchor="start" font-weight="600">Softmax</text>
<text x="115.0" y="34.0" font-size="14" fill="rgba(255,255,255,0.5)" text-anchor="start" font-weight="400">eˣ / sum of all eˣ</text>
<text x="124.0" y="70.0" font-size="13" fill="rgba(255,255,255,0.72)" text-anchor="middle" font-weight="400">scores — any numbers</text>
<rect x="40" y="112.0" width="46" height="150.0" rx="4" fill="rgba(31,165,222,0.45)"/>
<text x="63.0" y="104.0" font-size="12.5" fill="#fff" text-anchor="middle" font-weight="400">2.0</text>
<text x="63.0" y="282.0" font-size="12.5" fill="rgba(255,255,255,0.5)" text-anchor="middle" font-weight="400">A</text>
<rect x="100" y="187.0" width="46" height="75.0" rx="4" fill="rgba(31,165,222,0.45)"/>
<text x="123.0" y="179.0" font-size="12.5" fill="#fff" text-anchor="middle" font-weight="400">1.0</text>
<text x="123.0" y="282.0" font-size="12.5" fill="rgba(255,255,255,0.5)" text-anchor="middle" font-weight="400">B</text>
<rect x="160" y="254.5" width="46" height="7.5" rx="4" fill="rgba(31,165,222,0.45)"/>
<text x="183.0" y="246.5" font-size="12.5" fill="#fff" text-anchor="middle" font-weight="400">0.1</text>
<text x="183.0" y="282.0" font-size="12.5" fill="rgba(255,255,255,0.5)" text-anchor="middle" font-weight="400">C</text>
<line x1="32" y1="262" x2="214" y2="262" stroke="rgba(255,255,255,0.38)" stroke-width="1.3"/>
<text x="428.0" y="70.0" font-size="13" fill="rgba(255,255,255,0.72)" text-anchor="middle" font-weight="400">probabilities — sum to 1</text>
<rect x="344" y="163.1" width="46" height="98.9" rx="4" fill="#1fa5de"/>
<text x="367.0" y="155.1" font-size="12.5" fill="#fff" text-anchor="middle" font-weight="400">0.66</text>
<text x="367.0" y="282.0" font-size="12.5" fill="rgba(255,255,255,0.5)" text-anchor="middle" font-weight="400">A</text>
<rect x="404" y="225.6" width="46" height="36.4" rx="4" fill="#1fa5de"/>
<text x="427.0" y="217.6" font-size="12.5" fill="#fff" text-anchor="middle" font-weight="400">0.24</text>
<text x="427.0" y="282.0" font-size="12.5" fill="rgba(255,255,255,0.5)" text-anchor="middle" font-weight="400">B</text>
<rect x="464" y="247.2" width="46" height="14.8" rx="4" fill="#1fa5de"/>
<text x="487.0" y="239.2" font-size="12.5" fill="#fff" text-anchor="middle" font-weight="400">0.10</text>
<text x="487.0" y="282.0" font-size="12.5" fill="rgba(255,255,255,0.5)" text-anchor="middle" font-weight="400">C</text>
<line x1="336" y1="262" x2="518" y2="262" stroke="rgba(255,255,255,0.38)" stroke-width="1.3"/>
<line x1="246" y1="178" x2="316" y2="178" stroke="#f5a44a" stroke-width="2.5" marker-end="url(#a)"/>
<text x="281.0" y="166.0" font-size="13" fill="#f5a44a" text-anchor="middle" font-weight="600">softmax</text>
</svg>
