<svg xmlns="http://www.w3.org/2000/svg" viewBox="0 0 1200 630" width="1200" height="630" role="img" aria-label="Two cost lines crossing over three years"><title>Two cost lines crossing over three years</title><defs><radialGradient id="g1" cx="0.15" cy="0.1" r="0.7"><stop offset="0" stop-color="#1fa5de" stop-opacity="0.35"/><stop offset="1" stop-color="#1fa5de" stop-opacity="0"/></radialGradient><radialGradient id="g2" cx="0.9" cy="0.95" r="0.6"><stop offset="0" stop-color="#1fa5de" stop-opacity="0.28"/><stop offset="1" stop-color="#1fa5de" stop-opacity="0"/></radialGradient><pattern id="grid" width="46" height="46" patternUnits="userSpaceOnUse"><path d="M46 0H0V46" fill="none" stroke="#ffffff" stroke-opacity="0.05"/></pattern><marker id="arrow-ffffff" viewBox="0 0 10 10" refX="9" refY="5" markerWidth="7" markerHeight="7" orient="auto-start-reverse"><path d="M0 0 L10 5 L0 10 z" fill="#ffffff"/></marker><marker id="arrow-7ed957" viewBox="0 0 10 10" refX="9" refY="5" markerWidth="7" markerHeight="7" orient="auto-start-reverse"><path d="M0 0 L10 5 L0 10 z" fill="#7ed957"/></marker><marker id="arrow-1fa5de" viewBox="0 0 10 10" refX="9" refY="5" markerWidth="7" markerHeight="7" orient="auto-start-reverse"><path d="M0 0 L10 5 L0 10 z" fill="#1fa5de"/></marker><marker id="arrow-f5a44a" viewBox="0 0 10 10" refX="9" refY="5" markerWidth="7" markerHeight="7" orient="auto-start-reverse"><path d="M0 0 L10 5 L0 10 z" fill="#f5a44a"/></marker></defs><rect x="0" y="0" width="1200" height="630" rx="0" fill="#0b1720" /><rect x="0" y="0" width="1200" height="630" rx="0" fill="url(#grid)" /><rect x="0" y="0" width="1200" height="630" rx="0" fill="url(#g1)" /><rect x="0" y="0" width="1200" height="630" rx="0" fill="url(#g2)" /><rect x="64" y="72" width="114" height="38" rx="19" fill="#1fa5de" fill-opacity="0.16"/><text x="121.0" y="97" font-family="'Segoe UI', Inter, 'Helvetica Neue', Arial, sans-serif" font-size="15" font-weight="700" fill="#1fa5de" text-anchor="middle" letter-spacing="1.5">SOFTWARE</text><text x="64" y="190" font-family="'Segoe UI', Inter, 'Helvetica Neue', Arial, sans-serif" font-size="52" font-weight="700" fill="#ffffff" text-anchor="start" >Custom or</text><text x="64" y="254" font-family="'Segoe UI', Inter, 'Helvetica Neue', Arial, sans-serif" font-size="52" font-weight="700" fill="#ffffff" text-anchor="start" >off the shelf?</text><text x="64" y="566" font-family="'Segoe UI', Inter, 'Helvetica Neue', Arial, sans-serif" font-size="18" font-weight="500" fill="#ffffff" text-anchor="start" fill-opacity="0.45">nectarray.com/blog</text><g transform="translate(640 60)"><rect x="10" y="30" width="520" height="430" rx="18" fill="#ffffff" stroke="#ffffff" stroke-width="1.5" fill-opacity="0.06" stroke-opacity="0.18"/><line x1="60" y1="400" x2="500" y2="400" stroke="#ffffff" stroke-opacity="0.3" stroke-width="2"/><line x1="60" y1="400" x2="60" y2="70" stroke="#ffffff" stroke-opacity="0.3" stroke-width="2"/><polyline points="60,390 200,300 340,200 490,90" fill="none" stroke="#f5a44a" stroke-width="5" stroke-linecap="round"/><polyline points="60,230 200,205 340,180 490,155" fill="none" stroke="#7ed957" stroke-width="5" stroke-linecap="round"/><circle cx="375" cy="174" r="9" fill="#ffffff"/><text x="450" y="80" font-family="'Segoe UI', Inter, 'Helvetica Neue', Arial, sans-serif" font-size="18" font-weight="700" fill="#f5a44a" text-anchor="end" >SaaS</text><text x="490" y="190" font-family="'Segoe UI', Inter, 'Helvetica Neue', Arial, sans-serif" font-size="18" font-weight="700" fill="#7ed957" text-anchor="end" >Custom</text><text x="130" y="430" font-family="'Segoe UI', Inter, 'Helvetica Neue', Arial, sans-serif" font-size="15" font-weight="500" fill="#ffffff" text-anchor="middle" fill-opacity="0.6">Year 1</text><text x="275" y="430" font-family="'Segoe UI', Inter, 'Helvetica Neue', Arial, sans-serif" font-size="15" font-weight="500" fill="#ffffff" text-anchor="middle" fill-opacity="0.6">Year 2</text><text x="420" y="430" font-family="'Segoe UI', Inter, 'Helvetica Neue', Arial, sans-serif" font-size="15" font-weight="500" fill="#ffffff" text-anchor="middle" fill-opacity="0.6">Year 3</text></g></svg>
