<svg xmlns="http://www.w3.org/2000/svg" viewBox="0 0 1200 630" width="1200" height="630" role="img" aria-label="A quote broken into bars"><title>A quote broken into bars</title><defs><radialGradient id="g1" cx="0.15" cy="0.1" r="0.7"><stop offset="0" stop-color="#1fa5de" stop-opacity="0.35"/><stop offset="1" stop-color="#1fa5de" stop-opacity="0"/></radialGradient><radialGradient id="g2" cx="0.9" cy="0.95" r="0.6"><stop offset="0" stop-color="#1fa5de" stop-opacity="0.28"/><stop offset="1" stop-color="#1fa5de" stop-opacity="0"/></radialGradient><pattern id="grid" width="46" height="46" patternUnits="userSpaceOnUse"><path d="M46 0H0V46" fill="none" stroke="#ffffff" stroke-opacity="0.05"/></pattern><marker id="arrow-ffffff" viewBox="0 0 10 10" refX="9" refY="5" markerWidth="7" markerHeight="7" orient="auto-start-reverse"><path d="M0 0 L10 5 L0 10 z" fill="#ffffff"/></marker><marker id="arrow-7ed957" viewBox="0 0 10 10" refX="9" refY="5" markerWidth="7" markerHeight="7" orient="auto-start-reverse"><path d="M0 0 L10 5 L0 10 z" fill="#7ed957"/></marker><marker id="arrow-1fa5de" viewBox="0 0 10 10" refX="9" refY="5" markerWidth="7" markerHeight="7" orient="auto-start-reverse"><path d="M0 0 L10 5 L0 10 z" fill="#1fa5de"/></marker><marker id="arrow-f5a44a" viewBox="0 0 10 10" refX="9" refY="5" markerWidth="7" markerHeight="7" orient="auto-start-reverse"><path d="M0 0 L10 5 L0 10 z" fill="#f5a44a"/></marker></defs><rect x="0" y="0" width="1200" height="630" rx="0" fill="#0b1720" /><rect x="0" y="0" width="1200" height="630" rx="0" fill="url(#grid)" /><rect x="0" y="0" width="1200" height="630" rx="0" fill="url(#g1)" /><rect x="0" y="0" width="1200" height="630" rx="0" fill="url(#g2)" /><rect x="64" y="72" width="114" height="38" rx="19" fill="#1fa5de" fill-opacity="0.16"/><text x="121.0" y="97" font-family="'Segoe UI', Inter, 'Helvetica Neue', Arial, sans-serif" font-size="15" font-weight="700" fill="#1fa5de" text-anchor="middle" letter-spacing="1.5">SOFTWARE</text><text x="64" y="190" font-family="'Segoe UI', Inter, 'Helvetica Neue', Arial, sans-serif" font-size="52" font-weight="700" fill="#ffffff" text-anchor="start" >What custom software</text><text x="64" y="254" font-family="'Segoe UI', Inter, 'Helvetica Neue', Arial, sans-serif" font-size="52" font-weight="700" fill="#ffffff" text-anchor="start" >costs in India</text><text x="64" y="318" font-family="'Segoe UI', Inter, 'Helvetica Neue', Arial, sans-serif" font-size="52" font-weight="700" fill="#ffffff" text-anchor="start" >in 2026</text><text x="64" y="566" font-family="'Segoe UI', Inter, 'Helvetica Neue', Arial, sans-serif" font-size="18" font-weight="500" fill="#ffffff" text-anchor="start" fill-opacity="0.45">nectarray.com/blog</text><g transform="translate(640 60)"><rect x="20" y="30" width="500" height="440" rx="18" fill="#ffffff" stroke="#ffffff" stroke-width="1.5" fill-opacity="0.06" stroke-opacity="0.18"/><text x="50" y="80" font-family="'Segoe UI', Inter, 'Helvetica Neue', Arial, sans-serif" font-size="20" font-weight="700" fill="#ffffff" text-anchor="start" >Quote breakdown</text><text x="50" y="142" font-family="'Segoe UI', Inter, 'Helvetica Neue', Arial, sans-serif" font-size="16" font-weight="500" fill="#ffffff" text-anchor="start" fill-opacity="0.8">Design</text><rect x="190" y="126" width="290" height="22" rx="11" fill="#ffffff" fill-opacity="0.08"/><rect x="190" y="126" width="130.5" height="22" rx="11" fill="#1fa5de" /><text x="50" y="206" font-family="'Segoe UI', Inter, 'Helvetica Neue', Arial, sans-serif" font-size="16" font-weight="500" fill="#ffffff" text-anchor="start" fill-opacity="0.8">Build</text><rect x="190" y="190" width="290" height="22" rx="11" fill="#ffffff" fill-opacity="0.08"/><rect x="190" y="190" width="275.5" height="22" rx="11" fill="#1fa5de" /><text x="50" y="270" font-family="'Segoe UI', Inter, 'Helvetica Neue', Arial, sans-serif" font-size="16" font-weight="500" fill="#ffffff" text-anchor="start" fill-opacity="0.8">Integrations</text><rect x="190" y="254" width="290" height="22" rx="11" fill="#ffffff" fill-opacity="0.08"/><rect x="190" y="254" width="232.0" height="22" rx="11" fill="#7ed957" /><text x="50" y="334" font-family="'Segoe UI', Inter, 'Helvetica Neue', Arial, sans-serif" font-size="16" font-weight="500" fill="#ffffff" text-anchor="start" fill-opacity="0.8">Testing</text><rect x="190" y="318" width="290" height="22" rx="11" fill="#ffffff" fill-opacity="0.08"/><rect x="190" y="318" width="116.0" height="22" rx="11" fill="#f5a44a" /><text x="50" y="398" font-family="'Segoe UI', Inter, 'Helvetica Neue', Arial, sans-serif" font-size="16" font-weight="500" fill="#ffffff" text-anchor="start" fill-opacity="0.8">Launch</text><rect x="190" y="382" width="290" height="22" rx="11" fill="#ffffff" fill-opacity="0.08"/><rect x="190" y="382" width="72.5" height="22" rx="11" fill="#f5a44a" /><text x="50" y="450" font-family="'Segoe UI', Inter, 'Helvetica Neue', Arial, sans-serif" font-size="30" font-weight="700" fill="#f5a44a" text-anchor="start" >₹</text></g></svg>
