<svg xmlns="http://www.w3.org/2000/svg" viewBox="0 0 1200 500" width="1200" height="500" role="img" aria-label="Jev decision flow"><title>Jev decision flow</title><defs><marker id="arrow-4a5a67" viewBox="0 0 10 10" refX="9" refY="5" markerWidth="7" markerHeight="7" orient="auto-start-reverse"><path d="M0 0 L10 5 L0 10 z" fill="#4a5a67"/></marker><marker id="arrow-147fae" viewBox="0 0 10 10" refX="9" refY="5" markerWidth="7" markerHeight="7" orient="auto-start-reverse"><path d="M0 0 L10 5 L0 10 z" fill="#147fae"/></marker><marker id="arrow-4c9c2e" viewBox="0 0 10 10" refX="9" refY="5" markerWidth="7" markerHeight="7" orient="auto-start-reverse"><path d="M0 0 L10 5 L0 10 z" fill="#4c9c2e"/></marker><marker id="arrow-b86b12" viewBox="0 0 10 10" refX="9" refY="5" markerWidth="7" markerHeight="7" orient="auto-start-reverse"><path d="M0 0 L10 5 L0 10 z" fill="#b86b12"/></marker></defs><rect x="0" y="0" width="1200" height="500" rx="0" fill="#ffffff" /><rect x="40" y="150" width="250" height="200" rx="14" fill="#f4f7f9" stroke="#dfe6ec" stroke-width="2" /><text x="60" y="186" font-family="'Segoe UI', Inter, 'Helvetica Neue', Arial, sans-serif" font-size="20" font-weight="700" fill="#0e1b26" text-anchor="start" >Request</text><text x="60" y="222" font-family="'Cascadia Code', Consolas, 'SFMono-Regular', Menlo, monospace" font-size="15" font-weight="600" fill="#8795a1" text-anchor="start" >state:</text><text x="60" y="246" font-family="'Segoe UI', Inter, 'Helvetica Neue', Arial, sans-serif" font-size="16" font-weight="400" fill="#0e1b26" text-anchor="start" >a support ticket</text><text x="60" y="284" font-family="'Cascadia Code', Consolas, 'SFMono-Regular', Menlo, monospace" font-size="15" font-weight="600" fill="#8795a1" text-anchor="start" >questions:</text><text x="60" y="306" font-family="'Segoe UI', Inter, 'Helvetica Neue', Arial, sans-serif" font-size="16" font-weight="400" fill="#0e1b26" text-anchor="start" >urgent · billing · angry</text><line x1="292" y1="250" x2="355" y2="250" stroke="#4a5a67" stroke-width="2.5" marker-end="url(#arrow-4a5a67)"/><polygon points="435,170 505,210 505,290 435,330 365,290 365,210" fill="#eefae7" stroke="#4c9c2e" stroke-width="3"/><text x="435" y="245" font-family="'Segoe UI', Inter, 'Helvetica Neue', Arial, sans-serif" font-size="26" font-weight="700" fill="#0e1b26" text-anchor="middle" >Jev</text><text x="435" y="272" font-family="'Segoe UI', Inter, 'Helvetica Neue', Arial, sans-serif" font-size="14" font-weight="400" fill="#4a5a67" text-anchor="middle" >all in parallel</text><line x1="507" y1="250" x2="560" y2="170" stroke="#4a5a67" stroke-width="2.5" marker-end="url(#arrow-4a5a67)"/><rect x="565" y="140" width="210" height="60" rx="12" fill="#ffffff" stroke="#dfe6ec" stroke-width="2" /><text x="583" y="166" font-family="'Cascadia Code', Consolas, 'SFMono-Regular', Menlo, monospace" font-size="16" font-weight="600" fill="#0e1b26" text-anchor="start" >urgent</text><text x="757" y="166" font-family="'Cascadia Code', Consolas, 'SFMono-Regular', Menlo, monospace" font-size="16" font-weight="700" fill="#0e1b26" text-anchor="end" >0.97</text><rect x="583" y="178" width="174" height="8" rx="4" fill="#f4f7f9" /><rect x="583" y="178" width="168.78" height="8" rx="4" fill="#4c9c2e" /><line x1="507" y1="250" x2="560" y2="250" stroke="#4a5a67" stroke-width="2.5" marker-end="url(#arrow-4a5a67)"/><rect x="565" y="220" width="210" height="60" rx="12" fill="#ffffff" stroke="#dfe6ec" stroke-width="2" /><text x="583" y="246" font-family="'Cascadia Code', Consolas, 'SFMono-Regular', Menlo, monospace" font-size="16" font-weight="600" fill="#0e1b26" text-anchor="start" >billing</text><text x="757" y="246" font-family="'Cascadia Code', Consolas, 'SFMono-Regular', Menlo, monospace" font-size="16" font-weight="700" fill="#0e1b26" text-anchor="end" >0.08</text><rect x="583" y="258" width="174" height="8" rx="4" fill="#f4f7f9" /><rect x="583" y="258" width="13.92" height="8" rx="4" fill="#4c9c2e" /><line x1="507" y1="250" x2="560" y2="330" stroke="#4a5a67" stroke-width="2.5" marker-end="url(#arrow-4a5a67)"/><rect x="565" y="300" width="210" height="60" rx="12" fill="#ffffff" stroke="#dfe6ec" stroke-width="2" /><text x="583" y="326" font-family="'Cascadia Code', Consolas, 'SFMono-Regular', Menlo, monospace" font-size="16" font-weight="600" fill="#0e1b26" text-anchor="start" >angry</text><text x="757" y="326" font-family="'Cascadia Code', Consolas, 'SFMono-Regular', Menlo, monospace" font-size="16" font-weight="700" fill="#0e1b26" text-anchor="end" >0.55</text><rect x="583" y="338" width="174" height="8" rx="4" fill="#f4f7f9" /><rect x="583" y="338" width="95.7" height="8" rx="4" fill="#b86b12" /><line x1="777" y1="170" x2="795" y2="170" stroke="#4a5a67" stroke-width="2.5"/><line x1="777" y1="250" x2="795" y2="250" stroke="#4a5a67" stroke-width="2.5"/><line x1="777" y1="330" x2="795" y2="330" stroke="#4a5a67" stroke-width="2.5"/><line x1="795" y1="170" x2="795" y2="330" stroke="#4a5a67" stroke-width="2.5"/><line x1="795" y1="250" x2="845" y2="250" stroke="#4a5a67" stroke-width="2.5" marker-end="url(#arrow-4a5a67)"/><polygon points="930,180 1010,250 930,320 850,250" fill="#fdf3e6" stroke="#b86b12" stroke-width="3"/><text x="930" y="245" font-family="'Segoe UI', Inter, 'Helvetica Neue', Arial, sans-serif" font-size="18" font-weight="700" fill="#0e1b26" text-anchor="middle" >sure?</text><text x="930" y="268" font-family="'Segoe UI', Inter, 'Helvetica Neue', Arial, sans-serif" font-size="13" font-weight="400" fill="#4a5a67" text-anchor="middle" >≥ 0.7 or ≤ 0.3</text><line x1="930" y1="180" x2="930" y2="110" stroke="#4c9c2e" stroke-width="2.5" marker-end="url(#arrow-4c9c2e)"/><rect x="820" y="40" width="220" height="66" rx="14" fill="#eefae7" stroke="#4c9c2e" stroke-width="2" /><text x="930.0" y="80.0" font-family="'Segoe UI', Inter, 'Helvetica Neue', Arial, sans-serif" font-size="18" font-weight="700" fill="#0e1b26" text-anchor="middle" >Your code acts</text><text x="945" y="150" font-family="'Segoe UI', Inter, 'Helvetica Neue', Arial, sans-serif" font-size="15" font-weight="700" fill="#4c9c2e" text-anchor="start" >yes</text><line x1="930" y1="320" x2="930" y2="390" stroke="#b86b12" stroke-width="2.5" marker-end="url(#arrow-b86b12)"/><rect x="820" y="394" width="220" height="66" rx="14" fill="#fdf3e6" stroke="#b86b12" stroke-width="2" /><text x="930.0" y="434.0" font-family="'Segoe UI', Inter, 'Helvetica Neue', Arial, sans-serif" font-size="18" font-weight="700" fill="#0e1b26" text-anchor="middle" >Ask a large LLM</text><text x="945" y="365" font-family="'Segoe UI', Inter, 'Helvetica Neue', Arial, sans-serif" font-size="15" font-weight="700" fill="#b86b12" text-anchor="start" >no</text><text x="40" y="470" font-family="'Segoe UI', Inter, 'Helvetica Neue', Arial, sans-serif" font-size="16" font-weight="400" fill="#4a5a67" text-anchor="start" >Most decisions take the cheap path. Only the uncertain ones pay for a frontier model.</text></svg>
